<svg width="32" height="32" viewBox="0 0 32 32" fill="none" xmlns="http://www.w3.org/2000/svg">
<g clip-path="url(#clip0_1699_5707)">
<path d="M24.8175 -0.000366211H7.18254C3.21573 -0.000366211 0 3.21537 0 7.18217V24.8171C0 28.7839 3.21573 31.9996 7.18254 31.9996H24.8175C28.7843 31.9996 32 28.7839 32 24.8171V7.18217C32 3.21537 28.7843 -0.000366211 24.8175 -0.000366211Z" fill="#6772E5"/>
<path fill-rule="evenodd" clip-rule="evenodd" d="M14.7417 12.4139C14.7417 11.6491 15.3735 11.3055 16.3932 11.3055C18.0831 11.342 19.7413 11.7708 21.237 12.558V8.02457C19.6981 7.42108 18.0572 7.12001 16.4043 7.13783C12.4583 7.13783 9.82031 9.19949 9.82031 12.6799C9.82031 18.0668 17.2245 17.1912 17.2245 19.5189C17.2245 20.4167 16.4376 20.7049 15.3624 20.7049C13.4683 20.6004 11.6243 20.0578 9.97549 19.1198V23.7641C11.6556 24.4901 13.4657 24.8672 15.2959 24.8725C19.3416 24.8725 22.1348 22.8774 22.1348 19.3304C22.1681 13.5556 14.7417 14.5975 14.7417 12.4139Z" fill="white"/>
</g>
<defs>
<clipPath id="clip0_1699_5707">
<rect width="32" height="32" fill="white"/>
</clipPath>
</defs>
</svg>
