<svg width="32" height="32" viewBox="0 0 32 32" fill="none" xmlns="http://www.w3.org/2000/svg">
<path d="M11.5498 20.5L13.1498 11.5H15.6498L14.0998 20.5H11.5498Z" fill="#3C58BF"/>
<path d="M11.5498 20.5L13.5998 11.5H15.6498L14.0998 20.5H11.5498Z" fill="#293688"/>
<path d="M23.15 11.6002C22.65 11.4002 21.85 11.2002 20.85 11.2002C18.35 11.2002 16.55 12.4502 16.55 14.2502C16.55 15.6002 17.8 16.3002 18.8 16.7502C19.8 17.2002 20.1 17.5002 20.1 17.9002C20.1 18.5002 19.3 18.8002 18.6 18.8002C17.6 18.8002 17.05 18.6502 16.2 18.3002L15.85 18.1502L15.5 20.2002C16.1 20.4502 17.2 20.7002 18.35 20.7002C21 20.7002 22.75 19.4502 22.75 17.5502C22.75 16.5002 22.1 15.7002 20.6 15.0502C19.7 14.6002 19.15 14.3502 19.15 13.9002C19.15 13.5002 19.6 13.1002 20.6 13.1002C21.45 13.1002 22.05 13.2502 22.5 13.4502L22.75 13.5502L23.15 11.6002Z" fill="#3C58BF"/>
<path d="M23.15 11.6002C22.65 11.4002 21.85 11.2002 20.85 11.2002C18.35 11.2002 17 12.4502 17 14.2502C17 15.6002 17.8 16.3002 18.8 16.7502C19.8 17.2002 20.1 17.5002 20.1 17.9002C20.1 18.5002 19.3 18.8002 18.6 18.8002C17.6 18.8002 17.05 18.6502 16.2 18.3002L15.85 18.1502L15.5 20.2002C16.1 20.4502 17.2 20.7002 18.35 20.7002C21 20.7002 22.75 19.4502 22.75 17.5502C22.75 16.5002 22.1 15.7002 20.6 15.0502C19.7 14.6002 19.15 14.3502 19.15 13.9002C19.15 13.5002 19.6 13.1002 20.6 13.1002C21.45 13.1002 22.05 13.2502 22.5 13.4502L22.75 13.5502L23.15 11.6002Z" fill="#293688"/>
<path d="M27.4504 11.5C26.8504 11.5 26.4004 11.55 26.1504 12.15L22.4004 20.5H25.1004L25.6004 19H28.8004L29.1004 20.5H31.5004L29.4004 11.5H27.4504ZM26.3004 17.5C26.4504 17.05 27.3004 14.85 27.3004 14.85C27.3004 14.85 27.5004 14.3 27.6504 13.95L27.8004 14.8C27.8004 14.8 28.3004 17.05 28.4004 17.55H26.3004V17.5Z" fill="#3C58BF"/>
<path d="M28.0504 11.5C27.4504 11.5 27.0004 11.55 26.7504 12.15L22.4004 20.5H25.1004L25.6004 19H28.8004L29.1004 20.5H31.5004L29.4004 11.5H28.0504ZM26.3004 17.5C26.5004 17 27.3004 14.85 27.3004 14.85C27.3004 14.85 27.5004 14.3 27.6504 13.95L27.8004 14.8C27.8004 14.8 28.3004 17.05 28.4004 17.55H26.3004V17.5Z" fill="#293688"/>
<path d="M6.9502 17.7998L6.7002 16.4998C6.2502 14.9998 4.8002 13.3498 3.2002 12.5498L5.4502 20.5498H8.1502L12.2002 11.5498H9.5002L6.9502 17.7998Z" fill="#3C58BF"/>
<path d="M6.9502 17.7998L6.7002 16.4998C6.2502 14.9998 4.8002 13.3498 3.2002 12.5498L5.4502 20.5498H8.1502L12.2002 11.5498H10.0002L6.9502 17.7998Z" fill="#293688"/>
<path d="M0 11.5L0.45 11.6C3.65 12.35 5.85 14.25 6.7 16.5L5.8 12.25C5.65 11.65 5.2 11.5 4.65 11.5H0Z" fill="#FFBC00"/>
<path d="M0 11.5C3.2 12.25 5.85 14.2 6.7 16.45L5.85 12.9C5.7 12.3 5.2 11.95 4.65 11.95L0 11.5Z" fill="#F7981D"/>
<path d="M0 11.5C3.2 12.25 5.85 14.2 6.7 16.45L6.1 14.5C5.95 13.9 5.75 13.3 5.05 13.05L0 11.5Z" fill="#ED7C00"/>
<path d="M9.45 17.5L7.75 15.8L6.95 17.7L6.75 16.45C6.3 14.95 4.85 13.3 3.25 12.5L5.5 20.5H8.2L9.45 17.5ZM14.1 20.5L11.95 18.3L11.55 20.5H14.1ZM19.85 17.4C20.05 17.6 20.15 17.75 20.1 17.95C20.1 18.55 19.3 18.85 18.6 18.85C17.6 18.85 17.05 18.7 16.2 18.35L15.85 18.2L15.5 20.25C16.1 20.5 17.2 20.75 18.35 20.75C19.95 20.75 21.25 20.3 22 19.5L19.85 17.4ZM22.75 20.5H25.1L25.6 19H28.8L29.1 20.5H31.5L30.65 16.85L27.65 13.95L27.8 14.75C27.8 14.75 28.3 17 28.4 17.5H26.3C26.5 17 27.3 14.85 27.3 14.85C27.3 14.85 27.5 14.3 27.65 13.95" fill="#051244"/>
</svg>
